<?xml version="1.0" standalone="no"?>
<!DOCTYPE svg PUBLIC "-//W3C//DTD SVG 20010904//EN"
 "http://www.w3.org/TR/2001/REC-SVG-20010904/DTD/svg10.dtd">
<svg version="1.0" xmlns="http://www.w3.org/2000/svg"
 width="530.000000pt" height="530.000000pt" viewBox="0 0 530.000000 530.000000"
 preserveAspectRatio="xMidYMid meet">
<metadata>
Created by potrace 1.14, written by Peter Selinger 2001-2017
</metadata>
<g transform="translate(0.000000,530.000000) scale(0.100000,-0.100000)"
fill="#000000" stroke="none">
<path d="M2288 4934 c-2 -1 -43 -5 -93 -9 -180 -14 -280 -33 -516 -99 -219
-62 -511 -217 -729 -389 -95 -75 -313 -293 -371 -372 -52 -71 -54 -73 -79
-104 -11 -13 -22 -32 -25 -42 -4 -11 -11 -19 -16 -19 -5 0 -9 -4 -9 -9 0 -6
-13 -29 -29 -53 -40 -60 -126 -228 -162 -318 -77 -191 -116 -334 -145 -525 -8
-55 -17 -108 -20 -117 -10 -32 -6 -427 5 -495 35 -219 58 -323 99 -448 40
-124 140 -354 162 -375 3 -3 11 -17 17 -31 6 -15 34 -62 62 -105 66 -103 74
-114 86 -128 6 -6 29 -36 51 -66 23 -30 57 -71 75 -91 19 -20 46 -49 60 -65
89 -100 266 -250 389 -330 41 -27 77 -51 80 -54 3 -3 19 -12 35 -20 17 -8 32
-17 35 -20 10 -10 177 -90 188 -90 7 0 12 -4 12 -10 0 -5 8 -10 18 -10 9 0 28
-6 42 -13 49 -25 180 -68 330 -107 143 -37 361 -63 535 -64 153 0 397 30 525
64 101 27 217 62 232 70 10 6 23 10 29 10 13 0 96 36 217 93 46 22 257 142
277 159 5 4 44 34 85 65 110 84 124 97 245 218 125 125 162 168 213 243 19 28
38 52 42 52 4 0 10 8 14 18 3 9 19 37 36 62 16 25 33 52 37 60 3 8 9 17 12 20
4 3 26 46 51 95 25 50 51 98 59 108 8 9 11 17 6 17 -4 0 -1 10 7 23 21 31 102
273 128 381 45 184 59 316 56 551 -3 219 -18 363 -50 490 -9 33 -17 69 -19 80
-1 11 -5 25 -9 30 -3 6 -9 26 -13 45 -4 19 -11 41 -15 50 -5 8 -18 44 -31 80
-21 63 -155 350 -168 360 -7 6 -23 31 -47 74 -19 35 -129 187 -170 236 -47 55
-244 252 -299 297 -27 23 -61 51 -74 62 -13 12 -27 21 -31 21 -4 0 -18 9 -31
20 -13 11 -29 23 -34 28 -6 4 -44 28 -85 52 -41 25 -77 47 -80 50 -5 5 -133
68 -190 93 -19 9 -56 25 -82 36 -26 12 -53 21 -60 21 -8 0 -18 4 -23 9 -9 9
-35 17 -185 58 -126 34 -267 57 -415 68 -104 8 -244 13 -247 9z m-29 -444
c-63 -4 -131 -11 -150 -16 -44 -10 -36 -9 -94 -18 -27 -4 -57 -12 -65 -16 -8
-4 -33 -11 -54 -14 -22 -4 -44 -10 -50 -14 -6 -5 -31 -14 -56 -21 -99 -27
-376 -169 -428 -218 -7 -7 -17 -13 -22 -13 -5 0 -15 -6 -22 -12 -7 -7 -45 -39
-85 -70 -78 -63 -174 -157 -232 -228 -20 -25 -44 -54 -54 -64 -28 -32 -122
-177 -152 -234 -15 -29 -31 -54 -35 -57 -5 -3 -11 -19 -15 -35 -4 -17 -11 -30
-16 -30 -5 0 -9 -6 -9 -12 0 -7 -6 -25 -14 -40 -8 -14 -19 -43 -26 -65 -6 -21
-15 -47 -20 -58 -35 -84 -73 -257 -87 -395 -11 -106 -7 -370 6 -465 37 -262
139 -527 289 -755 31 -47 59 -87 62 -90 3 -3 23 -27 45 -55 146 -185 362 -359
585 -474 136 -69 229 -105 368 -141 146 -38 210 -48 357 -56 66 -4 122 -8 124
-10 13 -12 -361 -2 -441 11 -143 24 -325 71 -370 96 -10 5 -22 9 -28 9 -17 0
-286 135 -300 151 -3 3 -23 16 -45 29 -199 119 -485 421 -577 610 -7 14 -15
27 -19 30 -14 12 -98 187 -114 240 -4 14 -11 30 -15 35 -4 6 -13 35 -20 65 -7
30 -16 60 -20 65 -7 9 -34 151 -59 300 -10 61 -9 360 1 405 4 14 9 49 13 79 3
30 15 91 26 135 11 45 24 97 29 117 12 45 72 200 99 256 12 23 21 46 21 52 0
5 3 11 8 13 4 2 18 23 31 48 27 52 123 197 148 226 10 10 34 39 54 64 48 60
158 170 217 217 26 21 60 50 77 65 16 16 35 28 41 28 6 0 19 9 29 20 10 11 22
20 26 20 4 0 27 13 51 29 43 28 190 106 258 135 30 13 98 36 225 76 17 5 48
12 69 16 22 3 50 10 64 15 13 5 63 12 111 15 47 4 88 8 90 10 2 2 68 3 145 3
l141 -2 -116 -7z m343 -211 c8 -5 -15 -9 -57 -9 -290 -2 -665 -143 -910 -344
-82 -67 -115 -98 -169 -155 -28 -30 -58 -61 -66 -70 -8 -9 -26 -32 -40 -51
-13 -19 -27 -37 -30 -40 -12 -12 -90 -131 -90 -139 0 -5 -3 -11 -7 -13 -14 -5
-123 -236 -123 -258 0 -7 -7 -26 -15 -43 -16 -35 -29 -86 -51 -192 -61 -297
-36 -622 70 -900 15 -38 30 -79 33 -90 4 -11 9 -22 12 -25 3 -3 19 -32 35 -65
32 -69 137 -229 193 -295 68 -82 187 -194 268 -255 94 -71 161 -115 174 -115
5 0 11 -3 13 -7 5 -12 163 -87 243 -116 167 -60 262 -80 460 -97 85 -7 72 -8
-85 -5 -204 4 -312 21 -475 76 -148 51 -387 174 -446 231 -8 7 -26 21 -41 30
-75 48 -205 181 -302 308 -171 226 -263 439 -317 745 -14 73 -18 326 -8 430
12 122 55 310 89 390 5 11 16 38 26 60 53 127 145 296 182 334 8 8 31 37 51
65 51 69 187 204 264 263 34 26 64 50 67 53 10 11 90 62 130 82 14 7 27 15 30
18 12 13 158 79 188 85 17 4 32 10 32 15 0 4 10 10 23 13 12 2 62 16 110 30
48 15 109 29 135 32 26 4 54 8 62 10 8 2 53 7 100 11 47 3 87 8 89 11 9 7 139
0 153 -8z m92 -229 c-5 -5 -45 -14 -89 -20 -80 -11 -99 -16 -210 -52 -219 -72
-428 -204 -578 -366 -32 -34 -107 -130 -155 -198 -44 -63 -110 -201 -145 -306
-57 -169 -76 -299 -71 -488 4 -109 29 -283 44 -305 4 -5 11 -28 15 -50 4 -22
10 -44 15 -50 4 -5 13 -28 20 -50 30 -93 153 -301 235 -395 85 -97 230 -222
330 -283 165 -100 413 -180 605 -194 47 -3 87 -7 89 -9 9 -8 -156 -3 -249 6
-165 17 -307 58 -460 133 -58 29 -109 55 -115 59 -138 101 -190 144 -253 208
-93 93 -102 104 -170 205 -157 237 -234 491 -233 769 1 150 2 158 20 251 24
126 88 311 133 388 15 26 28 50 28 52 0 9 68 111 110 165 23 30 84 96 136 146
107 104 209 175 364 255 48 25 130 54 143 51 4 -1 7 2 7 8 0 5 8 10 19 10 10
0 45 8 77 19 65 20 114 28 249 40 50 4 92 8 95 9 2 1 0 -2 -6 -8z m135 -254
c-2 -2 -24 -6 -49 -9 -69 -9 -186 -40 -245 -66 -175 -78 -255 -131 -376 -251
-189 -186 -307 -430 -327 -675 -17 -199 4 -390 58 -520 171 -415 512 -682 935
-730 85 -10 81 -15 -10 -15 -207 0 -462 90 -643 228 -71 54 -202 178 -202 192
0 4 -13 23 -30 41 -16 19 -30 37 -30 41 0 4 -6 13 -13 20 -11 11 -84 157 -107
213 -40 96 -73 277 -73 400 0 86 26 263 49 335 27 82 114 270 127 270 4 0 7 5
7 11 0 7 26 44 57 83 153 191 283 283 548 386 23 9 138 37 175 43 34 6 154 8
149 3z m1357 -426 c52 -8 154 -44 154 -54 0 -5 -42 -131 -44 -133 -2 -2 -31 9
-67 23 -85 35 -251 40 -313 10 -82 -39 -121 -97 -120 -181 1 -115 57 -168 269
-256 158 -65 257 -143 303 -238 26 -54 24 -240 -3 -301 -11 -25 -23 -49 -28
-55 -58 -73 -125 -123 -202 -150 -93 -33 -385 -30 -430 5 -5 4 -25 11 -42 15
-18 3 -33 10 -33 15 0 4 -9 10 -20 13 -17 4 -18 9 -8 38 6 19 15 53 22 77 9
37 26 58 26 33 0 -5 12 -14 28 -20 122 -47 144 -53 232 -58 110 -6 183 13 240
63 93 82 94 233 2 324 -25 24 -136 82 -242 126 -125 52 -217 128 -259 214 -22
48 -26 67 -25 145 1 110 24 167 93 234 106 103 272 143 467 111z m-1011 -27
c87 -26 85 -23 62 -102 l-21 -70 -35 15 c-103 43 -279 56 -398 28 -87 -19
-192 -73 -241 -121 -39 -39 -102 -125 -102 -140 0 -4 -6 -20 -14 -35 -15 -28
-36 -141 -41 -213 -3 -56 21 -199 41 -245 37 -83 52 -107 109 -164 63 -63 111
-92 205 -121 70 -22 284 -23 345 -1 l40 14 3 201 2 201 -135 0 -135 0 0 68 0
67 218 0 217 0 3 -321 2 -322 -22 -5 c-13 -3 -56 -15 -97 -27 -129 -37 -347
-46 -479 -21 -111 22 -244 91 -311 161 -68 73 -88 104 -142 225 -57 130 -54
410 7 542 8 17 14 34 14 38 0 4 16 33 34 64 98 159 239 250 471 305 11 3 92 3
180 1 118 -2 176 -8 220 -22z"/>
<path d="M5005 3282 c-27 -15 -52 -29 -55 -32 -3 -3 -40 -23 -82 -45 -80 -41
-87 -51 -69 -97 5 -13 12 -35 15 -50 l6 -28 53 27 c28 15 54 29 57 32 4 5 84
47 112 59 5 2 8 -249 8 -557 l0 -561 23 -1 c24 -1 116 -1 132 0 7 1 10 218 10
639 l0 637 -80 2 c-70 2 -86 -1 -130 -25z"/>
</g>
</svg>
